<?xml version="1.0" encoding="UTF-8" standalone="no"?>
<!-- Created with Inkscape (http://www.inkscape.org/) -->

<svg
   xmlns:osb="http://www.openswatchbook.org/uri/2009/osb"
   xmlns:dc="http://purl.org/dc/elements/1.1/"
   xmlns:cc="http://creativecommons.org/ns#"
   xmlns:rdf="http://www.w3.org/1999/02/22-rdf-syntax-ns#"
   xmlns:svg="http://www.w3.org/2000/svg"
   xmlns="http://www.w3.org/2000/svg"
   xmlns:sodipodi="http://sodipodi.sourceforge.net/DTD/sodipodi-0.dtd"
   xmlns:inkscape="http://www.inkscape.org/namespaces/inkscape"
   width="110.85603"
   height="111.10173"
   id="svg2"
   version="1.1"
   inkscape:version="0.48.4 r9939"
   sodipodi:docname="restore_store_front_logo_square.svg"
   inkscape:export-filename="/Invend/Restore/restore_store_front_logo_square.png"
   inkscape:export-xdpi="200"
   inkscape:export-ydpi="200">
  <defs
     id="defs4">
    <linearGradient
       id="linearGradient4015"
       osb:paint="solid">
      <stop
         style="stop-color:#000000;stop-opacity:1;"
         offset="0"
         id="stop4017" />
    </linearGradient>
    <clipPath
       id="clipPath4439-1-1"
       clipPathUnits="userSpaceOnUse">
      <rect
         transform="matrix(0.70710678,0.70710678,-0.70710678,0.70710678,0,0)"
         y="846.24023"
         x="219.16766"
         height="31.309666"
         width="80.883301"
         id="rect4441-0-4"
         style="fill:#000000;fill-opacity:1;fill-rule:nonzero;stroke:#6e6e6e;stroke-width:0;stroke-miterlimit:4;stroke-opacity:1;stroke-dasharray:none;stroke-dashoffset:0" />
    </clipPath>
    <clipPath
       id="clipPath4439-3"
       clipPathUnits="userSpaceOnUse">
      <rect
         transform="matrix(0.70710678,0.70710678,-0.70710678,0.70710678,0,0)"
         y="846.24023"
         x="219.16766"
         height="31.309666"
         width="80.883301"
         id="rect4441-6"
         style="fill:#000000;fill-opacity:1;fill-rule:nonzero;stroke:#6e6e6e;stroke-width:0;stroke-miterlimit:4;stroke-opacity:1;stroke-dasharray:none;stroke-dashoffset:0" />
    </clipPath>
    <clipPath
       id="clipPath4439-1"
       clipPathUnits="userSpaceOnUse">
      <rect
         transform="matrix(0.70710678,0.70710678,-0.70710678,0.70710678,0,0)"
         y="846.24023"
         x="219.16766"
         height="31.309666"
         width="80.883301"
         id="rect4441-0"
         style="fill:#000000;fill-opacity:1;fill-rule:nonzero;stroke:#6e6e6e;stroke-width:0;stroke-miterlimit:4;stroke-opacity:1;stroke-dasharray:none;stroke-dashoffset:0" />
    </clipPath>
    <clipPath
       id="clipPath4439"
       clipPathUnits="userSpaceOnUse">
      <rect
         transform="matrix(0.70710678,0.70710678,-0.70710678,0.70710678,0,0)"
         y="846.24023"
         x="219.16766"
         height="31.309666"
         width="80.883301"
         id="rect4441"
         style="fill:#000000;fill-opacity:1;fill-rule:nonzero;stroke:#6e6e6e;stroke-width:0;stroke-miterlimit:4;stroke-opacity:1;stroke-dasharray:none;stroke-dashoffset:0" />
    </clipPath>
    <clipPath
       id="clipPath3125"
       clipPathUnits="userSpaceOnUse">
      <rect
         y="0"
         x="0"
         height="746"
         width="746"
         id="rect3127"
         style="fill:#803300;fill-opacity:1;fill-rule:nonzero;stroke:#6e6e6e;stroke-width:1;stroke-miterlimit:4;stroke-opacity:1;stroke-dasharray:none;stroke-dashoffset:0" />
    </clipPath>
    <clipPath
       id="clipPath3121"
       clipPathUnits="userSpaceOnUse">
      <rect
         y="0"
         x="0"
         height="746"
         width="746"
         id="rect3123"
         style="fill:#803300;fill-opacity:1;fill-rule:nonzero;stroke:#6e6e6e;stroke-width:1;stroke-miterlimit:4;stroke-opacity:1;stroke-dasharray:none;stroke-dashoffset:0" />
    </clipPath>
    <clipPath
       id="clipPath3117"
       clipPathUnits="userSpaceOnUse">
      <rect
         y="0"
         x="0"
         height="746"
         width="746"
         id="rect3119"
         style="fill:#803300;fill-opacity:1;fill-rule:nonzero;stroke:#6e6e6e;stroke-width:1;stroke-miterlimit:4;stroke-opacity:1;stroke-dasharray:none;stroke-dashoffset:0" />
    </clipPath>
    <clipPath
       id="clipPath3113"
       clipPathUnits="userSpaceOnUse">
      <rect
         y="0"
         x="0"
         height="746"
         width="746"
         id="rect3115"
         style="fill:#803300;fill-opacity:1;fill-rule:nonzero;stroke:#6e6e6e;stroke-width:1;stroke-miterlimit:4;stroke-opacity:1;stroke-dasharray:none;stroke-dashoffset:0" />
    </clipPath>
    <clipPath
       id="clipPath3109"
       clipPathUnits="userSpaceOnUse">
      <rect
         y="0"
         x="0"
         height="746"
         width="746"
         id="rect3111"
         style="fill:#803300;fill-opacity:1;fill-rule:nonzero;stroke:#6e6e6e;stroke-width:1;stroke-miterlimit:4;stroke-opacity:1;stroke-dasharray:none;stroke-dashoffset:0" />
    </clipPath>
    <inkscape:perspective
       id="perspective4413"
       inkscape:persp3d-origin="526.18109 : 248.03149 : 1"
       inkscape:vp_z="1052.3622 : 372.04724 : 1"
       inkscape:vp_y="0 : 1000 : 0"
       inkscape:vp_x="0 : 372.04724 : 1"
       sodipodi:type="inkscape:persp3d" />
  </defs>
  <sodipodi:namedview
     id="base"
     pagecolor="#ffffff"
     bordercolor="#666666"
     borderopacity="1.0"
     inkscape:pageopacity="0.0"
     inkscape:pageshadow="2"
     inkscape:zoom="5.6568542"
     inkscape:cx="63.894397"
     inkscape:cy="63.047039"
     inkscape:document-units="px"
     inkscape:current-layer="layer1"
     showgrid="false"
     showguides="true"
     inkscape:guide-bbox="true"
     inkscape:snap-grids="true"
     inkscape:snap-to-guides="true"
     inkscape:window-width="1920"
     inkscape:window-height="1025"
     inkscape:window-x="0"
     inkscape:window-y="-3"
     inkscape:window-maximized="1"
     fit-margin-top="0"
     fit-margin-left="0"
     fit-margin-right="0"
     fit-margin-bottom="0"
     borderlayer="true">
    <inkscape:grid
       type="xygrid"
       id="grid4603"
       empspacing="5"
       visible="true"
       enabled="true"
       snapvisiblegridlinesonly="true"
       originx="-415.32979px"
       originy="-920.76429px" />
  </sodipodi:namedview>
  <metadata
     id="metadata7">
    <rdf:RDF>
      <cc:Work
         rdf:about="">
        <dc:format>image/svg+xml</dc:format>
        <dc:type
           rdf:resource="http://purl.org/dc/dcmitype/StillImage" />
        <dc:title />
      </cc:Work>
    </rdf:RDF>
  </metadata>
  <g
     inkscape:groupmode="layer"
     id="layer4"
     inkscape:label="Layer"
     transform="translate(-415.32976,-20.496076)">
    <path
       id="path3004"
       d="m 436.96917,85.78081 c -2.47602,0 -4.76339,-2.07987 -6.0022,-4.22261 L 416.33722,55.87204 c -1.24194,-2.14668 -1.24194,-4.98271 0,-7.12938 l 14.62975,-25.022742 c 1.23881,-2.14353 3.52616,-3.18031 6.0022,-3.18031 h 29.26029 c 2.47602,0 4.76261,0.94166 6.00219,3.08441 L 486.8614,48.7411 c 1.24196,2.14667 1.24196,4.69815 0,6.84482 l -14.62975,26.01945 c -1.23958,2.14352 -3.52617,4.17544 -6.00219,4.17544 h -29.26029 z"
       stroke-miterlimit="10"
       inkscape:connector-curvature="0"
       style="opacity:0.6;fill:#44aa00;stroke:#000000;stroke-width:0;stroke-miterlimit:10;stroke-dasharray:none" />
    <path
       id="path3004-4"
       d="m 436.89317,131.59781 c -2.47603,0 -4.7634,-2.07987 -6.0022,-4.22261 l -14.62975,-25.68616 c -1.24194,-2.146679 -1.24194,-4.982709 0,-7.129379 l 14.62975,-25.02274 c 1.2388,-2.14353 3.52617,-3.18031 6.0022,-3.18031 h 29.26028 c 2.47602,0 4.76261,0.94166 6.00219,3.08441 l 14.62974,25.11708 c 1.24196,2.14667 1.24196,4.69815 0,6.844819 l -14.62974,26.01945 c -1.23958,2.14352 -3.52617,4.17544 -6.00219,4.17544 h -29.26028 z"
       stroke-miterlimit="10"
       inkscape:connector-curvature="0"
       style="opacity:0.6;fill:#ffcc00;stroke:#000000;stroke-width:0;stroke-miterlimit:10;stroke-dasharray:none" />
    <path
       id="path3004-4-3"
       d="m 475.35617,85.737278 c -2.47602,0 -4.76339,-2.07987 -6.0022,-4.22261 l -14.62975,-25.68616 c -1.24194,-2.14668 -1.24194,-4.98271 0,-7.12938 l 14.62975,-25.022742 c 1.23881,-2.14353 3.52616,-3.18031 6.0022,-3.18031 h 29.26027 c 2.476,0 4.76261,0.94166 6.00221,3.08441 l 14.62972,25.117082 c 1.24195,2.14667 1.24195,4.69815 0,6.84482 l -14.62972,26.01945 c -1.2396,2.14352 -3.52617,4.17544 -6.00221,4.17544 h -29.26028 z"
       stroke-miterlimit="10"
       inkscape:connector-curvature="0"
       style="opacity:0.6;fill:#5555ff;stroke:#000000;stroke-width:0;stroke-miterlimit:10;stroke-dasharray:none" />
    <path
       id="path3004-4-3-5"
       d="m 475.36218,131.53578 c -2.47602,0 -4.76339,-2.07987 -6.0022,-4.22261 l -14.62975,-25.68616 c -1.24194,-2.14668 -1.24194,-4.982709 0,-7.129379 l 14.62975,-25.02274 c 1.23881,-2.14353 3.52616,-3.18031 6.0022,-3.18031 h 29.26027 c 2.476,0 4.76261,0.94166 6.00216,3.08441 l 14.62972,25.11708 c 1.24196,2.14667 1.24196,4.698149 0,6.844819 l -14.62972,26.01945 c -1.2396,2.14352 -3.52616,4.17544 -6.00216,4.17544 h -29.26029 z"
       stroke-miterlimit="10"
       inkscape:connector-curvature="0"
       style="opacity:0.6;fill:#ff2a2a;stroke:#000000;stroke-width:0;stroke-miterlimit:10;stroke-dasharray:none" />
  </g>
  <g
     inkscape:label="Layer 1"
     inkscape:groupmode="layer"
     id="layer1"
     transform="translate(-415.32976,-20.496076)"
     style="display:inline">
    <g
       id="layer2"
       inkscape:label="BG"
       style="display:inline"
       transform="translate(-443.03916,651.16081)" />
    <g
       inkscape:label="Layer 1"
       id="layer1-6"
       transform="translate(-476.00797,267.28735)">
      <g
         id="Captions"
         transform="matrix(1.2188081,0,0,1.2188081,592.40703,830.66698)" />
      <path
         style="fill:#000000;fill-opacity:1;fill-rule:nonzero;stroke:#6e6e6e;stroke-width:0.86971295;stroke-miterlimit:4;stroke-opacity:1;stroke-dasharray:none;stroke-dashoffset:0"
         d=""
         id="path4126"
         inkscape:connector-curvature="0"
         transform="translate(0,308.2677)" />
    </g>
    <text
       xml:space="preserve"
       style="font-size:103.87297058px;font-style:normal;font-weight:normal;line-height:125%;letter-spacing:0px;word-spacing:0px;fill:#000000;fill-opacity:1;stroke:none;font-family:Sans"
       x="433.90109"
       y="124.44181"
       id="text3847"
       sodipodi:linespacing="125%"><tspan
         sodipodi:role="line"
         id="tspan3849"
         x="433.90109"
         y="124.44181"
         style="font-size:145.42216492px;font-style:normal;font-variant:normal;font-weight:normal;font-stretch:normal;text-align:start;line-height:125%;writing-mode:lr-tb;text-anchor:start;fill:#ffffff;font-family:Ropa Sans;-inkscape-font-specification:Ropa Sans">R</tspan></text>
  </g>
</svg>
