<?xml version="1.0" encoding="UTF-8" standalone="no"?>
<!-- Created with Inkscape (http://www.inkscape.org/) -->

<svg
   xmlns:osb="http://www.openswatchbook.org/uri/2009/osb"
   xmlns:dc="http://purl.org/dc/elements/1.1/"
   xmlns:cc="http://creativecommons.org/ns#"
   xmlns:rdf="http://www.w3.org/1999/02/22-rdf-syntax-ns#"
   xmlns:svg="http://www.w3.org/2000/svg"
   xmlns="http://www.w3.org/2000/svg"
   xmlns:sodipodi="http://sodipodi.sourceforge.net/DTD/sodipodi-0.dtd"
   xmlns:inkscape="http://www.inkscape.org/namespaces/inkscape"
   width="696.65222"
   height="450.15625"
   id="svg2"
   version="1.1"
   inkscape:version="0.48.5 r10040"
   sodipodi:docname="restore_commerce_store_front_sketch_browser.svg"
   inkscape:export-filename="/Invend/Restore/gfx/restore_commerce_logo.png"
   inkscape:export-xdpi="300"
   inkscape:export-ydpi="300">
  <defs
     id="defs4">
    <linearGradient
       id="linearGradient4015"
       osb:paint="solid">
      <stop
         style="stop-color:#000000;stop-opacity:1;"
         offset="0"
         id="stop4017" />
    </linearGradient>
    <clipPath
       id="clipPath4439-1-1"
       clipPathUnits="userSpaceOnUse">
      <rect
         transform="matrix(0.70710678,0.70710678,-0.70710678,0.70710678,0,0)"
         y="846.24023"
         x="219.16766"
         height="31.309666"
         width="80.883301"
         id="rect4441-0-4"
         style="fill:#000000;fill-opacity:1;fill-rule:nonzero;stroke:#6e6e6e;stroke-width:0;stroke-miterlimit:4;stroke-opacity:1;stroke-dasharray:none;stroke-dashoffset:0" />
    </clipPath>
    <clipPath
       id="clipPath4439-3"
       clipPathUnits="userSpaceOnUse">
      <rect
         transform="matrix(0.70710678,0.70710678,-0.70710678,0.70710678,0,0)"
         y="846.24023"
         x="219.16766"
         height="31.309666"
         width="80.883301"
         id="rect4441-6"
         style="fill:#000000;fill-opacity:1;fill-rule:nonzero;stroke:#6e6e6e;stroke-width:0;stroke-miterlimit:4;stroke-opacity:1;stroke-dasharray:none;stroke-dashoffset:0" />
    </clipPath>
    <clipPath
       id="clipPath4439-1"
       clipPathUnits="userSpaceOnUse">
      <rect
         transform="matrix(0.70710678,0.70710678,-0.70710678,0.70710678,0,0)"
         y="846.24023"
         x="219.16766"
         height="31.309666"
         width="80.883301"
         id="rect4441-0"
         style="fill:#000000;fill-opacity:1;fill-rule:nonzero;stroke:#6e6e6e;stroke-width:0;stroke-miterlimit:4;stroke-opacity:1;stroke-dasharray:none;stroke-dashoffset:0" />
    </clipPath>
    <clipPath
       id="clipPath4439"
       clipPathUnits="userSpaceOnUse">
      <rect
         transform="matrix(0.70710678,0.70710678,-0.70710678,0.70710678,0,0)"
         y="846.24023"
         x="219.16766"
         height="31.309666"
         width="80.883301"
         id="rect4441"
         style="fill:#000000;fill-opacity:1;fill-rule:nonzero;stroke:#6e6e6e;stroke-width:0;stroke-miterlimit:4;stroke-opacity:1;stroke-dasharray:none;stroke-dashoffset:0" />
    </clipPath>
    <clipPath
       id="clipPath3125"
       clipPathUnits="userSpaceOnUse">
      <rect
         y="0"
         x="0"
         height="746"
         width="746"
         id="rect3127"
         style="fill:#803300;fill-opacity:1;fill-rule:nonzero;stroke:#6e6e6e;stroke-width:1;stroke-miterlimit:4;stroke-opacity:1;stroke-dasharray:none;stroke-dashoffset:0" />
    </clipPath>
    <clipPath
       id="clipPath3121"
       clipPathUnits="userSpaceOnUse">
      <rect
         y="0"
         x="0"
         height="746"
         width="746"
         id="rect3123"
         style="fill:#803300;fill-opacity:1;fill-rule:nonzero;stroke:#6e6e6e;stroke-width:1;stroke-miterlimit:4;stroke-opacity:1;stroke-dasharray:none;stroke-dashoffset:0" />
    </clipPath>
    <clipPath
       id="clipPath3117"
       clipPathUnits="userSpaceOnUse">
      <rect
         y="0"
         x="0"
         height="746"
         width="746"
         id="rect3119"
         style="fill:#803300;fill-opacity:1;fill-rule:nonzero;stroke:#6e6e6e;stroke-width:1;stroke-miterlimit:4;stroke-opacity:1;stroke-dasharray:none;stroke-dashoffset:0" />
    </clipPath>
    <clipPath
       id="clipPath3113"
       clipPathUnits="userSpaceOnUse">
      <rect
         y="0"
         x="0"
         height="746"
         width="746"
         id="rect3115"
         style="fill:#803300;fill-opacity:1;fill-rule:nonzero;stroke:#6e6e6e;stroke-width:1;stroke-miterlimit:4;stroke-opacity:1;stroke-dasharray:none;stroke-dashoffset:0" />
    </clipPath>
    <clipPath
       id="clipPath3109"
       clipPathUnits="userSpaceOnUse">
      <rect
         y="0"
         x="0"
         height="746"
         width="746"
         id="rect3111"
         style="fill:#803300;fill-opacity:1;fill-rule:nonzero;stroke:#6e6e6e;stroke-width:1;stroke-miterlimit:4;stroke-opacity:1;stroke-dasharray:none;stroke-dashoffset:0" />
    </clipPath>
    <inkscape:perspective
       id="perspective4413"
       inkscape:persp3d-origin="526.18109 : 248.03149 : 1"
       inkscape:vp_z="1052.3622 : 372.04724 : 1"
       inkscape:vp_y="0 : 1000 : 0"
       inkscape:vp_x="0 : 372.04724 : 1"
       sodipodi:type="inkscape:persp3d" />
    <clipPath
       clipPathUnits="userSpaceOnUse"
       id="clipPath3875">
      <path
         style="fill:#424a4d;fill-opacity:1;fill-rule:nonzero;stroke:#9c9c9c;stroke-width:0;stroke-linecap:butt;stroke-linejoin:miter;stroke-miterlimit:4;stroke-opacity:1;stroke-dasharray:none;stroke-dashoffset:0;display:inline"
         d="m 251.53105,269.05365 c -4.75754,0 -9.15098,1.04397 -11.53125,3.1875 l -28.125,25.03125 c -2.38632,2.14667 -2.38632,4.97832 0,7.125 l 28.125,25.6875 c 2.38027,2.14274 6.77371,4.21875 11.53125,4.21875 l 27.21875,0 0,0.0625 119.84375,0 0,-65.3125 -90.84375,0 -29,0 -27.21875,0 z m -25.5,26.625 c 2.7793,0 5.03125,2.25194 5.03125,5.03125 0,2.7793 -2.25195,5.03125 -5.03125,5.03125 -2.77931,0 -5.03125,-2.25195 -5.03125,-5.03125 0,-2.77931 2.25194,-5.03125 5.03125,-5.03125 z"
         id="path3877"
         inkscape:connector-curvature="0" />
    </clipPath>
    <clipPath
       clipPathUnits="userSpaceOnUse"
       id="clipPath152">
      <path
         inkscape:connector-curvature="0"
         d="m 624.763,909.776 96.697,0 0,-16.075 -96.697,0 0,16.075 z"
         id="path154" />
    </clipPath>
    <clipPath
       clipPathUnits="userSpaceOnUse"
       id="clipPath156">
      <path
         inkscape:connector-curvature="0"
         d="m 624.763,909.776 25.998,0 0,-16.075 -25.998,0 0,16.075 z"
         id="path158" />
    </clipPath>
    <clipPath
       clipPathUnits="userSpaceOnUse"
       id="clipPath160">
      <path
         inkscape:connector-curvature="0"
         d="m 650.104,909.776 71.356,0 0,-16.075 -71.356,0 0,16.075 z"
         id="path162" />
    </clipPath>
    <clipPath
       id="clipPath3849"
       clipPathUnits="userSpaceOnUse">
      <rect
         y="223.31703"
         x="269.36514"
         height="111.25804"
         width="110.95364"
         id="rect3851"
         style="fill:#424a4d;fill-opacity:1;fill-rule:nonzero;stroke:#9c9c9c;stroke-width:0;stroke-linecap:butt;stroke-linejoin:miter;stroke-miterlimit:4;stroke-opacity:1;stroke-dasharray:none;stroke-dashoffset:0" />
    </clipPath>
    <clipPath
       id="clipPath3875-3"
       clipPathUnits="userSpaceOnUse">
      <path
         inkscape:connector-curvature="0"
         id="path3877-7"
         d="m 251.53105,269.05365 c -4.75754,0 -9.15098,1.04397 -11.53125,3.1875 l -28.125,25.03125 c -2.38632,2.14667 -2.38632,4.97832 0,7.125 l 28.125,25.6875 c 2.38027,2.14274 6.77371,4.21875 11.53125,4.21875 l 27.21875,0 0,0.0625 119.84375,0 0,-65.3125 -90.84375,0 -29,0 -27.21875,0 z m -25.5,26.625 c 2.7793,0 5.03125,2.25194 5.03125,5.03125 0,2.7793 -2.25195,5.03125 -5.03125,5.03125 -2.77931,0 -5.03125,-2.25195 -5.03125,-5.03125 0,-2.77931 2.25194,-5.03125 5.03125,-5.03125 z"
         style="fill:#424a4d;fill-opacity:1;fill-rule:nonzero;stroke:#9c9c9c;stroke-width:0;stroke-linecap:butt;stroke-linejoin:miter;stroke-miterlimit:4;stroke-opacity:1;stroke-dasharray:none;stroke-dashoffset:0;display:inline" />
    </clipPath>
    <inkscape:perspective
       sodipodi:type="inkscape:persp3d"
       inkscape:vp_x="0 : 372.04724 : 1"
       inkscape:vp_y="0 : 1000 : 0"
       inkscape:vp_z="1052.3622 : 372.04724 : 1"
       inkscape:persp3d-origin="526.18109 : 248.03149 : 1"
       id="perspective4413-0" />
    <clipPath
       clipPathUnits="userSpaceOnUse"
       id="clipPath3109-7">
      <rect
         style="fill:#803300;fill-opacity:1;fill-rule:nonzero;stroke:#6e6e6e;stroke-width:1;stroke-miterlimit:4;stroke-opacity:1;stroke-dasharray:none;stroke-dashoffset:0"
         id="rect3111-8"
         width="746"
         height="746"
         x="0"
         y="0" />
    </clipPath>
    <clipPath
       clipPathUnits="userSpaceOnUse"
       id="clipPath3113-2">
      <rect
         style="fill:#803300;fill-opacity:1;fill-rule:nonzero;stroke:#6e6e6e;stroke-width:1;stroke-miterlimit:4;stroke-opacity:1;stroke-dasharray:none;stroke-dashoffset:0"
         id="rect3115-1"
         width="746"
         height="746"
         x="0"
         y="0" />
    </clipPath>
    <clipPath
       clipPathUnits="userSpaceOnUse"
       id="clipPath3117-1">
      <rect
         style="fill:#803300;fill-opacity:1;fill-rule:nonzero;stroke:#6e6e6e;stroke-width:1;stroke-miterlimit:4;stroke-opacity:1;stroke-dasharray:none;stroke-dashoffset:0"
         id="rect3119-1"
         width="746"
         height="746"
         x="0"
         y="0" />
    </clipPath>
    <clipPath
       clipPathUnits="userSpaceOnUse"
       id="clipPath3121-5">
      <rect
         style="fill:#803300;fill-opacity:1;fill-rule:nonzero;stroke:#6e6e6e;stroke-width:1;stroke-miterlimit:4;stroke-opacity:1;stroke-dasharray:none;stroke-dashoffset:0"
         id="rect3123-9"
         width="746"
         height="746"
         x="0"
         y="0" />
    </clipPath>
    <clipPath
       clipPathUnits="userSpaceOnUse"
       id="clipPath3125-6">
      <rect
         style="fill:#803300;fill-opacity:1;fill-rule:nonzero;stroke:#6e6e6e;stroke-width:1;stroke-miterlimit:4;stroke-opacity:1;stroke-dasharray:none;stroke-dashoffset:0"
         id="rect3127-4"
         width="746"
         height="746"
         x="0"
         y="0" />
    </clipPath>
    <clipPath
       clipPathUnits="userSpaceOnUse"
       id="clipPath4439-2">
      <rect
         style="fill:#000000;fill-opacity:1;fill-rule:nonzero;stroke:#6e6e6e;stroke-width:0;stroke-miterlimit:4;stroke-opacity:1;stroke-dasharray:none;stroke-dashoffset:0"
         id="rect4441-1"
         width="80.883301"
         height="31.309666"
         x="219.16766"
         y="846.24023"
         transform="matrix(0.70710678,0.70710678,-0.70710678,0.70710678,0,0)" />
    </clipPath>
    <clipPath
       clipPathUnits="userSpaceOnUse"
       id="clipPath4439-1-2">
      <rect
         style="fill:#000000;fill-opacity:1;fill-rule:nonzero;stroke:#6e6e6e;stroke-width:0;stroke-miterlimit:4;stroke-opacity:1;stroke-dasharray:none;stroke-dashoffset:0"
         id="rect4441-0-3"
         width="80.883301"
         height="31.309666"
         x="219.16766"
         y="846.24023"
         transform="matrix(0.70710678,0.70710678,-0.70710678,0.70710678,0,0)" />
    </clipPath>
    <clipPath
       clipPathUnits="userSpaceOnUse"
       id="clipPath4439-3-5">
      <rect
         style="fill:#000000;fill-opacity:1;fill-rule:nonzero;stroke:#6e6e6e;stroke-width:0;stroke-miterlimit:4;stroke-opacity:1;stroke-dasharray:none;stroke-dashoffset:0"
         id="rect4441-6-3"
         width="80.883301"
         height="31.309666"
         x="219.16766"
         y="846.24023"
         transform="matrix(0.70710678,0.70710678,-0.70710678,0.70710678,0,0)" />
    </clipPath>
    <clipPath
       clipPathUnits="userSpaceOnUse"
       id="clipPath4439-1-1-8">
      <rect
         style="fill:#000000;fill-opacity:1;fill-rule:nonzero;stroke:#6e6e6e;stroke-width:0;stroke-miterlimit:4;stroke-opacity:1;stroke-dasharray:none;stroke-dashoffset:0"
         id="rect4441-0-4-7"
         width="80.883301"
         height="31.309666"
         x="219.16766"
         y="846.24023"
         transform="matrix(0.70710678,0.70710678,-0.70710678,0.70710678,0,0)" />
    </clipPath>
    <linearGradient
       osb:paint="solid"
       id="linearGradient4015-4">
      <stop
         id="stop4017-9"
         offset="0"
         style="stop-color:#000000;stop-opacity:1;" />
    </linearGradient>
  </defs>
  <sodipodi:namedview
     id="base"
     pagecolor="#ffffff"
     bordercolor="#666666"
     borderopacity="1.0"
     inkscape:pageopacity="0.0"
     inkscape:pageshadow="2"
     inkscape:zoom="0.45497147"
     inkscape:cx="-531.84525"
     inkscape:cy="334.82842"
     inkscape:document-units="px"
     inkscape:current-layer="layer4"
     showgrid="false"
     showguides="false"
     inkscape:guide-bbox="true"
     inkscape:snap-grids="false"
     inkscape:snap-to-guides="false"
     inkscape:window-width="1920"
     inkscape:window-height="1025"
     inkscape:window-x="0"
     inkscape:window-y="-3"
     inkscape:window-maximized="1"
     fit-margin-top="0"
     fit-margin-left="0"
     fit-margin-right="0"
     fit-margin-bottom="0"
     showborder="false"
     inkscape:showpageshadow="false"
     inkscape:snap-bbox="true"
     inkscape:snap-object-midpoints="true"
     inkscape:bbox-paths="true"
     inkscape:bbox-nodes="true"
     inkscape:snap-bbox-edge-midpoints="true"
     inkscape:snap-center="true">
    <inkscape:grid
       type="xygrid"
       id="grid4603"
       empspacing="5"
       visible="true"
       enabled="true"
       snapvisiblegridlinesonly="true"
       originx="939.36287px"
       originy="-1171.9382px" />
    <sodipodi:guide
       orientation="1,0"
       position="1197.3313,-378.79562"
       id="guide3019" />
    <sodipodi:guide
       orientation="1,0"
       position="1332.1023,-386.8265"
       id="guide3102" />
    <sodipodi:guide
       orientation="0,1"
       position="1168.5656,-420.19396"
       id="guide3022" />
  </sodipodi:namedview>
  <metadata
     id="metadata7">
    <rdf:RDF>
      <cc:Work
         rdf:about="">
        <dc:format>image/svg+xml</dc:format>
        <dc:type
           rdf:resource="http://purl.org/dc/dcmitype/StillImage" />
        <dc:title />
      </cc:Work>
    </rdf:RDF>
  </metadata>
  <g
     inkscape:groupmode="layer"
     id="layer4"
     inkscape:label="BG1"
     transform="translate(939.36287,569.7323)"
     style="display:inline">
    <g
       id="g120"
       transform="matrix(0.73755434,0,0,-1.25,-935.3002,-567.8823)"
       style="fill:#ffffff">
      <path
         d="m 0,0 933.527,0 c 1.658,0 3,-1.343 3,-3 l 0,-351.165 c 0,-1.657 -1.342,-3 -3,-3 l -933.527,0 c -1.657,0 -3,1.343 -3,3 L -3,-3 c 0,1.657 1.343,3 3,3"
         style="fill:#ffffff;fill-opacity:1;fill-rule:nonzero;stroke:none"
         id="path122"
         inkscape:connector-curvature="0" />
    </g>
    <text
       xml:space="preserve"
       style="font-size:49.30731964px;font-style:normal;font-variant:normal;font-weight:normal;font-stretch:normal;text-align:start;line-height:125%;letter-spacing:0px;word-spacing:0px;writing-mode:lr-tb;text-anchor:start;fill:#ffffff;fill-opacity:1;stroke:none;font-family:Ropa Sans;-inkscape-font-specification:Ropa Sans"
       x="222.30066"
       y="337.26401"
       id="text3820-7-4-5"
       sodipodi:linespacing="125%"
       transform="scale(0.98553249,1.0146799)"><tspan
         sodipodi:role="line"
         x="222.30066"
         y="337.26401"
         id="tspan3824-0-5-3"
         style="font-size:46.84315872px;font-style:normal;font-variant:normal;font-weight:normal;font-stretch:normal;text-align:start;line-height:125%;writing-mode:lr-tb;text-anchor:start;fill:#ffffff;font-family:Ropa Sans;-inkscape-font-specification:Ropa Sans" /></text>
    <g
       id="g124"
       transform="matrix(0.73755435,0,0,-1.25,-935.30021,-567.8823)"
       style="stroke-width:4.16589165;stroke-miterlimit:4;stroke-dasharray:none">
      <path
         d="m 0,0 933.527,0 c 1.658,0 3,-1.343 3,-3 l 0,-351.165 c 0,-1.657 -1.342,-3 -3,-3 l -933.527,0 c -1.657,0 -3,1.343 -3,3 L -3,-3 c 0,1.657 1.343,3 3,3 z"
         style="opacity:0.98999999;fill:none;stroke:#f2f2f2;stroke-width:3.85344982;stroke-linecap:round;stroke-linejoin:round;stroke-miterlimit:4;stroke-opacity:1;stroke-dasharray:none"
         id="path126"
         inkscape:connector-curvature="0" />
    </g>
    <g
       id="g128"
       transform="matrix(0.73755435,0,0,-1.25,-936.03776,-567.8823)"
       style="fill:#f2f2f2">
      <path
         d="m 0,0 935.527,0 c 1.105,0 2,-0.896 2,-2 l 0,-31 c 0,-1.104 -0.895,-2 -2,-2 L 0,-35 c -1.104,0 -2,0.896 -2,2 l 0,31 c 0,1.104 0.896,2 2,2"
         style="fill:#f2f2f2;fill-opacity:1;fill-rule:nonzero;stroke:none"
         id="path130"
         inkscape:connector-curvature="0" />
    </g>
    <g
       id="g132"
       transform="matrix(1.25,0,0,-1.25,-915.63787,-555.3823)">
      <path
         d="M 0,0 C 4.142,0 7.5,-3.358 7.5,-7.5 7.5,-11.642 4.142,-15 0,-15 c -4.142,0 -7.5,3.358 -7.5,7.5 0,4.142 3.358,7.5 7.5,7.5"
         style="fill:#b8b7bd;fill-opacity:1;fill-rule:nonzero;stroke:none"
         id="path134"
         inkscape:connector-curvature="0" />
    </g>
    <g
       id="g136"
       transform="matrix(1.25,0,0,-1.25,-890.63787,-555.3823)">
      <path
         d="M 0,0 C 4.142,0 7.5,-3.358 7.5,-7.5 7.5,-11.642 4.142,-15 0,-15 c -4.142,0 -7.5,3.358 -7.5,7.5 0,4.142 3.358,7.5 7.5,7.5"
         style="fill:#b8b7bd;fill-opacity:1;fill-rule:nonzero;stroke:none"
         id="path138"
         inkscape:connector-curvature="0" />
    </g>
    <g
       id="g140"
       transform="matrix(1.25,0,0,-1.25,-865.63787,-555.3823)">
      <path
         d="M 0,0 C 4.142,0 7.5,-3.358 7.5,-7.5 7.5,-11.642 4.142,-15 0,-15 c -4.142,0 -7.5,3.358 -7.5,7.5 0,4.142 3.358,7.5 7.5,7.5"
         style="fill:#b8b7bd;fill-opacity:1;fill-rule:nonzero;stroke:none"
         id="path142"
         inkscape:connector-curvature="0" />
    </g>
    <g
       id="g4171"
       transform="matrix(0.4723075,0,0,0.4723075,-1844.9419,-374.64284)">
      <g
         id="layer2"
         inkscape:label="BG"
         style="display:inline"
         transform="translate(-858.36891,630.66473)" />
      <g
         inkscape:label="Layer 1"
         id="layer1-6"
         transform="translate(-891.33772,246.79127)">
        <g
           id="Captions"
           transform="matrix(1.2188081,0,0,1.2188081,592.40703,830.66698)" />
        <path
           style="fill:#000000;fill-opacity:1;fill-rule:nonzero;stroke:#6e6e6e;stroke-width:0.86971295;stroke-miterlimit:4;stroke-opacity:1;stroke-dasharray:none;stroke-dashoffset:0"
           d=""
           id="path4126"
           inkscape:connector-curvature="0"
           transform="translate(0,308.2677)" />
      </g>
    </g>
    <path
       id="path3869"
       d="m -739.7125,-389.77219 h -25.286 v -21.83653 l -7.0206,-7.0212 H -829.59 l -7.0207,7.0212 v 21.83653 h -24.6892 l -9.846,153.39276 h 140.6828 l -9.2494,-153.39276 z m -39.3274,0 h -43.5292 v -14.81611 h 43.5292 v 14.81611 z"
       inkscape:connector-curvature="0"
       style="fill:#424a4d;fill-opacity:1;display:inline" />
    <g
       style="display:inline"
       id="g3944"
       transform="matrix(1.923225,0,0,1.923225,-128.10647,-218.32501)">
      <g
         style="fill:#ffae44;fill-opacity:1;display:inline"
         transform="matrix(0.58720635,0,0,0.58720635,-624.79627,-87.02263)"
         id="layer1-3-7"
         inkscape:label="Layer 1">
        <g
           transform="translate(-443.03916,651.16081)"
           style="fill:#ffae44;fill-opacity:1;display:inline"
           inkscape:label="BG"
           id="layer2-0-1" />
        <g
           transform="translate(-476.00797,267.28735)"
           id="layer1-6-4-0"
           inkscape:label="Layer 1"
           style="fill:#ffae44;fill-opacity:1">
          <g
             transform="matrix(1.2188081,0,0,1.2188081,592.40703,830.66698)"
             id="Captions-7-9"
             style="fill:#ffae44;fill-opacity:1" />
          <path
             transform="translate(0,308.2677)"
             inkscape:connector-curvature="0"
             id="path4126-4-2"
             d=""
             style="fill:#ffae44;fill-opacity:1;fill-rule:nonzero;stroke:#6e6e6e;stroke-width:0.86971295;stroke-miterlimit:4;stroke-opacity:1;stroke-dasharray:none;stroke-dashoffset:0" />
        </g>
        <text
           sodipodi:linespacing="125%"
           id="text3847-8"
           y="113.46491"
           x="429.34543"
           style="font-size:123.51776123px;font-style:normal;font-variant:normal;font-weight:normal;font-stretch:normal;text-align:start;line-height:125%;letter-spacing:0px;word-spacing:0px;writing-mode:lr-tb;text-anchor:start;fill:#ffae44;fill-opacity:1;stroke:none;font-family:Lato;-inkscape-font-specification:Lato"
           xml:space="preserve"><tspan
             style="font-size:123.51776123px;font-style:normal;font-variant:normal;font-weight:normal;font-stretch:normal;text-align:start;line-height:125%;writing-mode:lr-tb;text-anchor:start;fill:#ffae44;fill-opacity:1;font-family:Lato;-inkscape-font-specification:Lato"
             y="113.46491"
             x="429.34543"
             id="tspan3849-0"
             sodipodi:role="line">R</tspan></text>
      </g>
    </g>
    <text
       sodipodi:linespacing="125%"
       id="text3847-5"
       y="-301.09125"
       x="-640.97498"
       style="font-size:58.33836365px;font-style:normal;font-variant:normal;font-weight:normal;font-stretch:normal;text-align:start;line-height:125%;letter-spacing:0px;word-spacing:0px;writing-mode:lr-tb;text-anchor:start;fill:#424a4d;fill-opacity:1;stroke:none;display:inline;font-family:Lato;-inkscape-font-specification:Lato"
       xml:space="preserve"><tspan
         style="font-size:58.33836365px;font-style:normal;font-variant:normal;font-weight:normal;font-stretch:normal;text-align:start;line-height:125%;writing-mode:lr-tb;text-anchor:start;fill:#424a4d;fill-opacity:1;font-family:Lato;-inkscape-font-specification:Lato"
         y="-301.09125"
         x="-640.97498"
         sodipodi:role="line"
         id="tspan3866">Store Front</tspan></text>
  </g>
</svg>
